<mxfile host="65bd71144e">
    <diagram id="8FRexojeOuclDkdWfjBB" name="Page-1">
        <mxGraphModel dx="1758" dy="784" grid="0" gridSize="10" guides="1" tooltips="1" connect="1" arrows="1" fold="1" page="0" pageScale="1" pageWidth="850" pageHeight="1100" math="0" shadow="0">
            <root>
                <mxCell id="0"/>
                <mxCell id="1" parent="0"/>
                <mxCell id="3" value="Schema" style="rounded=0;whiteSpace=wrap;html=1;" parent="1" vertex="1">
                    <mxGeometry x="-263" y="-114" width="160" height="80" as="geometry"/>
                </mxCell>
                <mxCell id="5" value="Data" style="rounded=0;whiteSpace=wrap;html=1;" parent="1" vertex="1">
                    <mxGeometry x="-263" y="-24" width="160" height="80" as="geometry"/>
                </mxCell>
                <mxCell id="6" value="Cloud SDK" style="text;html=1;align=center;verticalAlign=middle;resizable=0;points=[];autosize=1;strokeColor=none;fillColor=none;" parent="1" vertex="1">
                    <mxGeometry x="-216.5" y="-159" width="77" height="26" as="geometry"/>
                </mxCell>
                <mxCell id="7" value="" style="rounded=0;whiteSpace=wrap;html=1;" parent="1" vertex="1">
                    <mxGeometry x="254" y="-101" width="160" height="80" as="geometry"/>
                </mxCell>
                <mxCell id="8" value="gpt-4o" style="text;html=1;align=center;verticalAlign=middle;resizable=0;points=[];autosize=1;strokeColor=none;fillColor=none;" parent="1" vertex="1">
                    <mxGeometry x="303" y="-133" width="52" height="26" as="geometry"/>
                </mxCell>
                <mxCell id="9" value="{&quot;id&quot;:&quot;&quot;,&quot;name1&quot;:&quot;value1&quot;,&quot;name2&quot;:&quot;value2&quot;}" style="text;html=1;align=center;verticalAlign=middle;resizable=0;points=[];autosize=1;strokeColor=none;fillColor=none;" parent="1" vertex="1">
                    <mxGeometry x="184" y="-10" width="247" height="26" as="geometry"/>
                </mxCell>
                <mxCell id="10" value="" style="edgeStyle=none;orthogonalLoop=1;jettySize=auto;html=1;rounded=0;endArrow=open;startSize=14;endSize=14;sourcePerimeterSpacing=8;targetPerimeterSpacing=8;curved=1;" parent="1" edge="1">
                    <mxGeometry width="140" relative="1" as="geometry">
                        <mxPoint x="437" y="3" as="sourcePoint"/>
                        <mxPoint x="539" y="3" as="targetPoint"/>
                        <Array as="points"/>
                    </mxGeometry>
                </mxCell>
                <mxCell id="11" value="{&quot;name3&quot;:[{&quot;id&quot;:&quot;&quot;,&quot;name4&quot;:&quot;&quot;,&quot;name5&quot;:&quot;&quot;},{.....}]}" style="text;html=1;align=center;verticalAlign=middle;resizable=0;points=[];autosize=1;strokeColor=none;fillColor=none;" parent="1" vertex="1">
                    <mxGeometry x="160" y="72" width="268" height="26" as="geometry"/>
                </mxCell>
                <mxCell id="12" value="" style="edgeStyle=none;orthogonalLoop=1;jettySize=auto;html=1;rounded=0;endArrow=open;startSize=14;endSize=14;sourcePerimeterSpacing=8;targetPerimeterSpacing=8;curved=1;" parent="1" edge="1">
                    <mxGeometry width="140" relative="1" as="geometry">
                        <mxPoint x="463" y="85" as="sourcePoint"/>
                        <mxPoint x="561" y="84.5" as="targetPoint"/>
                        <Array as="points"/>
                    </mxGeometry>
                </mxCell>
                <mxCell id="13" value="" style="shape=table;startSize=0;container=1;collapsible=0;childLayout=tableLayout;" parent="1" vertex="1">
                    <mxGeometry x="570" y="109" width="180" height="40" as="geometry"/>
                </mxCell>
                <mxCell id="14" value="" style="shape=tableRow;horizontal=0;startSize=0;swimlaneHead=0;swimlaneBody=0;top=0;left=0;bottom=0;right=0;collapsible=0;dropTarget=0;fillColor=none;points=[[0,0.5],[1,0.5]];portConstraint=eastwest;" parent="13" vertex="1">
                    <mxGeometry width="180" height="40" as="geometry"/>
                </mxCell>
                <mxCell id="15" value="value4" style="shape=partialRectangle;html=1;whiteSpace=wrap;connectable=0;overflow=hidden;fillColor=none;top=0;left=0;bottom=0;right=0;pointerEvents=1;" parent="14" vertex="1">
                    <mxGeometry width="60" height="40" as="geometry">
                        <mxRectangle width="60" height="40" as="alternateBounds"/>
                    </mxGeometry>
                </mxCell>
                <mxCell id="16" value="value5" style="shape=partialRectangle;html=1;whiteSpace=wrap;connectable=0;overflow=hidden;fillColor=none;top=0;left=0;bottom=0;right=0;pointerEvents=1;" parent="14" vertex="1">
                    <mxGeometry x="60" width="60" height="40" as="geometry">
                        <mxRectangle width="60" height="40" as="alternateBounds"/>
                    </mxGeometry>
                </mxCell>
                <mxCell id="17" value="" style="shape=partialRectangle;html=1;whiteSpace=wrap;connectable=0;overflow=hidden;fillColor=none;top=0;left=0;bottom=0;right=0;pointerEvents=1;" parent="14" vertex="1">
                    <mxGeometry x="120" width="60" height="40" as="geometry">
                        <mxRectangle width="60" height="40" as="alternateBounds"/>
                    </mxGeometry>
                </mxCell>
                <mxCell id="18" value="name1:value1" style="text;html=1;align=center;verticalAlign=middle;resizable=0;points=[];autosize=1;strokeColor=none;fillColor=none;" parent="1" vertex="1">
                    <mxGeometry x="565" y="56" width="93" height="26" as="geometry"/>
                </mxCell>
                <mxCell id="19" value="name1:value1.&amp;nbsp; name2:value2" style="text;html=1;align=center;verticalAlign=middle;resizable=0;points=[];autosize=1;strokeColor=none;fillColor=none;" parent="1" vertex="1">
                    <mxGeometry x="531" y="-8" width="179" height="26" as="geometry"/>
                </mxCell>
                <mxCell id="26" value="name3:" style="text;html=1;align=center;verticalAlign=middle;resizable=0;points=[];autosize=1;strokeColor=none;fillColor=none;" parent="1" vertex="1">
                    <mxGeometry x="565" y="82" width="58" height="26" as="geometry"/>
                </mxCell>
                <mxCell id="27" value="{&quot;name3&quot;:{&quot;id&quot;:&quot;&quot;,&quot;name4&quot;:&quot;value4&quot;,&quot;name5&quot;:&quot;value5&quot;}}" style="text;html=1;align=center;verticalAlign=middle;resizable=0;points=[];autosize=1;strokeColor=none;fillColor=none;" parent="1" vertex="1">
                    <mxGeometry x="142" y="194" width="304" height="26" as="geometry"/>
                </mxCell>
                <mxCell id="29" value="" style="edgeStyle=none;orthogonalLoop=1;jettySize=auto;html=1;rounded=0;endArrow=open;startSize=14;endSize=14;sourcePerimeterSpacing=8;targetPerimeterSpacing=8;curved=1;" parent="1" edge="1">
                    <mxGeometry width="140" relative="1" as="geometry">
                        <mxPoint x="444" y="207" as="sourcePoint"/>
                        <mxPoint x="542" y="206.5" as="targetPoint"/>
                        <Array as="points"/>
                    </mxGeometry>
                </mxCell>
                <mxCell id="30" value="name1:value1" style="text;html=1;align=center;verticalAlign=middle;resizable=0;points=[];autosize=1;strokeColor=none;fillColor=none;" parent="1" vertex="1">
                    <mxGeometry x="547.5" y="168" width="93" height="26" as="geometry"/>
                </mxCell>
                <mxCell id="32" value="name3:&amp;nbsp;&amp;nbsp;&lt;br&gt;&amp;nbsp;name4:value4&amp;nbsp;" style="text;html=1;align=center;verticalAlign=middle;resizable=0;points=[];autosize=1;strokeColor=none;fillColor=none;" parent="1" vertex="1">
                    <mxGeometry x="544" y="189" width="100" height="41" as="geometry"/>
                </mxCell>
                <mxCell id="33" value="Util: support operations&lt;br&gt;&lt;br&gt;built dynamically" style="text;html=1;align=center;verticalAlign=middle;resizable=0;points=[];autosize=1;strokeColor=none;fillColor=none;" parent="1" vertex="1">
                    <mxGeometry x="-63" y="60" width="141" height="55" as="geometry"/>
                </mxCell>
                <mxCell id="34" value="&lt;meta charset=&quot;utf-8&quot;&gt;&lt;span style=&quot;box-sizing: border-box; color: rgb(57, 58, 52); font-family: SFMono-Regular, Menlo, Monaco, Consolas, &amp;quot;Liberation Mono&amp;quot;, &amp;quot;Courier New&amp;quot;, monospace; font-size: 15.2px; font-style: normal; font-variant-ligatures: normal; font-variant-caps: normal; font-weight: 400; letter-spacing: normal; orphans: 2; text-align: start; text-indent: 0px; text-transform: none; widows: 2; word-spacing: 0px; -webkit-text-stroke-width: 0px; background-color: rgb(246, 248, 250); text-decoration-thickness: initial; text-decoration-style: initial; text-decoration-color: initial;&quot; class=&quot;token-line&quot;&gt;&lt;span style=&quot;box-sizing: border-box;&quot; class=&quot;token plain&quot;&gt;businessPartnerApi&lt;/span&gt;&lt;br style=&quot;box-sizing: border-box;&quot;&gt;&lt;/span&gt;&lt;span style=&quot;box-sizing: border-box; color: rgb(57, 58, 52); font-family: SFMono-Regular, Menlo, Monaco, Consolas, &amp;quot;Liberation Mono&amp;quot;, &amp;quot;Courier New&amp;quot;, monospace; font-size: 15.2px; font-style: normal; font-variant-ligatures: normal; font-variant-caps: normal; font-weight: 400; letter-spacing: normal; orphans: 2; text-align: start; text-indent: 0px; text-transform: none; widows: 2; word-spacing: 0px; -webkit-text-stroke-width: 0px; background-color: rgb(246, 248, 250); text-decoration-thickness: initial; text-decoration-style: initial; text-decoration-color: initial;&quot; class=&quot;token-line&quot;&gt;&lt;span style=&quot;box-sizing: border-box;&quot; class=&quot;token plain&quot;&gt;  &lt;/span&gt;&lt;span style=&quot;box-sizing: border-box; color: rgb(57, 58, 52);&quot; class=&quot;token punctuation&quot;&gt;.&lt;/span&gt;&lt;span style=&quot;box-sizing: border-box; color: rgb(215, 58, 73);&quot; class=&quot;token function&quot;&gt;requestBuilder&lt;/span&gt;&lt;span style=&quot;box-sizing: border-box; color: rgb(57, 58, 52);&quot; class=&quot;token punctuation&quot;&gt;(&lt;/span&gt;&lt;span style=&quot;box-sizing: border-box; color: rgb(57, 58, 52);&quot; class=&quot;token punctuation&quot;&gt;)&lt;/span&gt;&lt;span style=&quot;box-sizing: border-box;&quot; class=&quot;token plain&quot;&gt;&lt;/span&gt;&lt;br style=&quot;box-sizing: border-box;&quot;&gt;&lt;/span&gt;&lt;span style=&quot;box-sizing: border-box; color: rgb(57, 58, 52); font-family: SFMono-Regular, Menlo, Monaco, Consolas, &amp;quot;Liberation Mono&amp;quot;, &amp;quot;Courier New&amp;quot;, monospace; font-size: 15.2px; font-style: normal; font-variant-ligatures: normal; font-variant-caps: normal; font-weight: 400; letter-spacing: normal; orphans: 2; text-align: start; text-indent: 0px; text-transform: none; widows: 2; word-spacing: 0px; -webkit-text-stroke-width: 0px; background-color: rgb(246, 248, 250); text-decoration-thickness: initial; text-decoration-style: initial; text-decoration-color: initial;&quot; class=&quot;token-line&quot;&gt;&lt;span style=&quot;box-sizing: border-box;&quot; class=&quot;token plain&quot;&gt;  &lt;/span&gt;&lt;span style=&quot;box-sizing: border-box; color: rgb(57, 58, 52);&quot; class=&quot;token punctuation&quot;&gt;.&lt;/span&gt;&lt;span style=&quot;box-sizing: border-box; color: rgb(215, 58, 73);&quot; class=&quot;token function&quot;&gt;getAll&lt;/span&gt;&lt;span style=&quot;box-sizing: border-box; color: rgb(57, 58, 52);&quot; class=&quot;token punctuation&quot;&gt;(&lt;/span&gt;&lt;span style=&quot;box-sizing: border-box; color: rgb(57, 58, 52);&quot; class=&quot;token punctuation&quot;&gt;)&lt;/span&gt;&lt;span style=&quot;box-sizing: border-box;&quot; class=&quot;token plain&quot;&gt;&lt;/span&gt;&lt;br style=&quot;box-sizing: border-box;&quot;&gt;&lt;/span&gt;&lt;span style=&quot;box-sizing: border-box; color: rgb(57, 58, 52); font-family: SFMono-Regular, Menlo, Monaco, Consolas, &amp;quot;Liberation Mono&amp;quot;, &amp;quot;Courier New&amp;quot;, monospace; font-size: 15.2px; font-style: normal; font-variant-ligatures: normal; font-variant-caps: normal; font-weight: 400; letter-spacing: normal; orphans: 2; text-align: start; text-indent: 0px; text-transform: none; widows: 2; word-spacing: 0px; -webkit-text-stroke-width: 0px; background-color: rgb(246, 248, 250); text-decoration-thickness: initial; text-decoration-style: initial; text-decoration-color: initial;&quot; class=&quot;token-line&quot;&gt;&lt;span style=&quot;box-sizing: border-box;&quot; class=&quot;token plain&quot;&gt;  &lt;/span&gt;&lt;span style=&quot;box-sizing: border-box; color: rgb(57, 58, 52);&quot; class=&quot;token punctuation&quot;&gt;.&lt;/span&gt;&lt;span style=&quot;box-sizing: border-box; color: rgb(215, 58, 73);&quot; class=&quot;token function&quot;&gt;filter&lt;/span&gt;&lt;span style=&quot;box-sizing: border-box; color: rgb(57, 58, 52);&quot; class=&quot;token punctuation&quot;&gt;(&lt;/span&gt;&lt;span style=&quot;box-sizing: border-box;&quot; class=&quot;token plain&quot;&gt;&lt;/span&gt;&lt;br style=&quot;box-sizing: border-box;&quot;&gt;&lt;/span&gt;&lt;span style=&quot;box-sizing: border-box; color: rgb(57, 58, 52); font-family: SFMono-Regular, Menlo, Monaco, Consolas, &amp;quot;Liberation Mono&amp;quot;, &amp;quot;Courier New&amp;quot;, monospace; font-size: 15.2px; font-style: normal; font-variant-ligatures: normal; font-variant-caps: normal; font-weight: 400; letter-spacing: normal; orphans: 2; text-align: start; text-indent: 0px; text-transform: none; widows: 2; word-spacing: 0px; -webkit-text-stroke-width: 0px; background-color: rgb(246, 248, 250); text-decoration-thickness: initial; text-decoration-style: initial; text-decoration-color: initial;&quot; class=&quot;token-line&quot;&gt;&lt;span style=&quot;box-sizing: border-box;&quot; class=&quot;token plain&quot;&gt;    &lt;/span&gt;&lt;span style=&quot;box-sizing: border-box; color: rgb(215, 58, 73);&quot; class=&quot;token function&quot;&gt;or&lt;/span&gt;&lt;span style=&quot;box-sizing: border-box; color: rgb(57, 58, 52);&quot; class=&quot;token punctuation&quot;&gt;(&lt;/span&gt;&lt;span style=&quot;box-sizing: border-box;&quot; class=&quot;token plain&quot;&gt;&lt;/span&gt;&lt;br style=&quot;box-sizing: border-box;&quot;&gt;&lt;/span&gt;&lt;span style=&quot;box-sizing: border-box; color: rgb(57, 58, 52); font-family: SFMono-Regular, Menlo, Monaco, Consolas, &amp;quot;Liberation Mono&amp;quot;, &amp;quot;Courier New&amp;quot;, monospace; font-size: 15.2px; font-style: normal; font-variant-ligatures: normal; font-variant-caps: normal; font-weight: 400; letter-spacing: normal; orphans: 2; text-align: start; text-indent: 0px; text-transform: none; widows: 2; word-spacing: 0px; -webkit-text-stroke-width: 0px; background-color: rgb(246, 248, 250); text-decoration-thickness: initial; text-decoration-style: initial; text-decoration-color: initial;&quot; class=&quot;token-line&quot;&gt;&lt;span style=&quot;box-sizing: border-box;&quot; class=&quot;token plain&quot;&gt;      &lt;/span&gt;&lt;span style=&quot;box-sizing: border-box; color: rgb(215, 58, 73);&quot; class=&quot;token function&quot;&gt;and&lt;/span&gt;&lt;span style=&quot;box-sizing: border-box; color: rgb(57, 58, 52);&quot; class=&quot;token punctuation&quot;&gt;(&lt;/span&gt;&lt;span style=&quot;box-sizing: border-box;&quot; class=&quot;token plain&quot;&gt;&lt;/span&gt;&lt;br style=&quot;box-sizing: border-box;&quot;&gt;&lt;/span&gt;&lt;span style=&quot;box-sizing: border-box; color: rgb(57, 58, 52); font-family: SFMono-Regular, Menlo, Monaco, Consolas, &amp;quot;Liberation Mono&amp;quot;, &amp;quot;Courier New&amp;quot;, monospace; font-size: 15.2px; font-style: normal; font-variant-ligatures: normal; font-variant-caps: normal; font-weight: 400; letter-spacing: normal; orphans: 2; text-align: start; text-indent: 0px; text-transform: none; widows: 2; word-spacing: 0px; -webkit-text-stroke-width: 0px; background-color: rgb(246, 248, 250); text-decoration-thickness: initial; text-decoration-style: initial; text-decoration-color: initial;&quot; class=&quot;token-line&quot;&gt;&lt;span style=&quot;box-sizing: border-box;&quot; class=&quot;token plain&quot;&gt;        businessPartnerApi&lt;/span&gt;&lt;span style=&quot;box-sizing: border-box; color: rgb(57, 58, 52);&quot; class=&quot;token punctuation&quot;&gt;.&lt;/span&gt;&lt;span style=&quot;box-sizing: border-box;&quot; class=&quot;token plain&quot;&gt;schema&lt;/span&gt;&lt;span style=&quot;box-sizing: border-box; color: rgb(57, 58, 52);&quot; class=&quot;token punctuation&quot;&gt;.&lt;/span&gt;&lt;span style=&quot;box-sizing: border-box; color: rgb(54, 172, 170);&quot; class=&quot;token constant&quot;&gt;FIRST_NAME&lt;/span&gt;&lt;span style=&quot;box-sizing: border-box; color: rgb(57, 58, 52);&quot; class=&quot;token punctuation&quot;&gt;.&lt;/span&gt;&lt;span style=&quot;box-sizing: border-box; color: rgb(215, 58, 73);&quot; class=&quot;token function&quot;&gt;equals&lt;/span&gt;&lt;span style=&quot;box-sizing: border-box; color: rgb(57, 58, 52);&quot; class=&quot;token punctuation&quot;&gt;(&lt;/span&gt;&lt;span style=&quot;box-sizing: border-box; color: rgb(227, 17, 108);&quot; class=&quot;token string&quot;&gt;'Alice'&lt;/span&gt;&lt;span style=&quot;box-sizing: border-box; color: rgb(57, 58, 52);&quot; class=&quot;token punctuation&quot;&gt;)&lt;/span&gt;&lt;span style=&quot;box-sizing: border-box; color: rgb(57, 58, 52);&quot; class=&quot;token punctuation&quot;&gt;,&lt;/span&gt;&lt;span style=&quot;box-sizing: border-box;&quot; class=&quot;token plain&quot;&gt;&lt;/span&gt;&lt;br style=&quot;box-sizing: border-box;&quot;&gt;&lt;/span&gt;&lt;span style=&quot;box-sizing: border-box; color: rgb(57, 58, 52); font-family: SFMono-Regular, Menlo, Monaco, Consolas, &amp;quot;Liberation Mono&amp;quot;, &amp;quot;Courier New&amp;quot;, monospace; font-size: 15.2px; font-style: normal; font-variant-ligatures: normal; font-variant-caps: normal; font-weight: 400; letter-spacing: normal; orphans: 2; text-align: start; text-indent: 0px; text-transform: none; widows: 2; word-spacing: 0px; -webkit-text-stroke-width: 0px; background-color: rgb(246, 248, 250); text-decoration-thickness: initial; text-decoration-style: initial; text-decoration-color: initial;&quot; class=&quot;token-line&quot;&gt;&lt;span style=&quot;box-sizing: border-box;&quot; class=&quot;token plain&quot;&gt;        businessPartnerApi&lt;/span&gt;&lt;span style=&quot;box-sizing: border-box; color: rgb(57, 58, 52);&quot; class=&quot;token punctuation&quot;&gt;.&lt;/span&gt;&lt;span style=&quot;box-sizing: border-box;&quot; class=&quot;token plain&quot;&gt;schema&lt;/span&gt;&lt;span style=&quot;box-sizing: border-box; color: rgb(57, 58, 52);&quot; class=&quot;token punctuation&quot;&gt;.&lt;/span&gt;&lt;span style=&quot;box-sizing: border-box; color: rgb(54, 172, 170);&quot; class=&quot;token constant&quot;&gt;LAST_NAME&lt;/span&gt;&lt;span style=&quot;box-sizing: border-box; color: rgb(57, 58, 52);&quot; class=&quot;token punctuation&quot;&gt;.&lt;/span&gt;&lt;span style=&quot;box-sizing: border-box; color: rgb(215, 58, 73);&quot; class=&quot;token function&quot;&gt;notEquals&lt;/span&gt;&lt;span style=&quot;box-sizing: border-box; color: rgb(57, 58, 52);&quot; class=&quot;token punctuation&quot;&gt;(&lt;/span&gt;&lt;span style=&quot;box-sizing: border-box; color: rgb(227, 17, 108);&quot; class=&quot;token string&quot;&gt;'Bob'&lt;/span&gt;&lt;span style=&quot;box-sizing: border-box; color: rgb(57, 58, 52);&quot; class=&quot;token punctuation&quot;&gt;)&lt;/span&gt;&lt;span style=&quot;box-sizing: border-box;&quot; class=&quot;token plain&quot;&gt;&lt;/span&gt;&lt;br style=&quot;box-sizing: border-box;&quot;&gt;&lt;/span&gt;&lt;span style=&quot;box-sizing: border-box; color: rgb(57, 58, 52); font-family: SFMono-Regular, Menlo, Monaco, Consolas, &amp;quot;Liberation Mono&amp;quot;, &amp;quot;Courier New&amp;quot;, monospace; font-size: 15.2px; font-style: normal; font-variant-ligatures: normal; font-variant-caps: normal; font-weight: 400; letter-spacing: normal; orphans: 2; text-align: start; text-indent: 0px; text-transform: none; widows: 2; word-spacing: 0px; -webkit-text-stroke-width: 0px; background-color: rgb(246, 248, 250); text-decoration-thickness: initial; text-decoration-style: initial; text-decoration-color: initial;&quot; class=&quot;token-line&quot;&gt;&lt;span style=&quot;box-sizing: border-box;&quot; class=&quot;token plain&quot;&gt;      &lt;/span&gt;&lt;span style=&quot;box-sizing: border-box; color: rgb(57, 58, 52);&quot; class=&quot;token punctuation&quot;&gt;)&lt;/span&gt;&lt;span style=&quot;box-sizing: border-box; color: rgb(57, 58, 52);&quot; class=&quot;token punctuation&quot;&gt;,&lt;/span&gt;&lt;span style=&quot;box-sizing: border-box;&quot; class=&quot;token plain&quot;&gt;&lt;/span&gt;&lt;br style=&quot;box-sizing: border-box;&quot;&gt;&lt;/span&gt;&lt;span style=&quot;box-sizing: border-box; color: rgb(57, 58, 52); font-family: SFMono-Regular, Menlo, Monaco, Consolas, &amp;quot;Liberation Mono&amp;quot;, &amp;quot;Courier New&amp;quot;, monospace; font-size: 15.2px; font-style: normal; font-variant-ligatures: normal; font-variant-caps: normal; font-weight: 400; letter-spacing: normal; orphans: 2; text-align: start; text-indent: 0px; text-transform: none; widows: 2; word-spacing: 0px; -webkit-text-stroke-width: 0px; background-color: rgb(246, 248, 250); text-decoration-thickness: initial; text-decoration-style: initial; text-decoration-color: initial;&quot; class=&quot;token-line&quot;&gt;&lt;span style=&quot;box-sizing: border-box;&quot; class=&quot;token plain&quot;&gt;      businessPartnerApi&lt;/span&gt;&lt;span style=&quot;box-sizing: border-box; color: rgb(57, 58, 52);&quot; class=&quot;token punctuation&quot;&gt;.&lt;/span&gt;&lt;span style=&quot;box-sizing: border-box;&quot; class=&quot;token plain&quot;&gt;schema&lt;/span&gt;&lt;span style=&quot;box-sizing: border-box; color: rgb(57, 58, 52);&quot; class=&quot;token punctuation&quot;&gt;.&lt;/span&gt;&lt;span style=&quot;box-sizing: border-box; color: rgb(54, 172, 170);&quot; class=&quot;token constant&quot;&gt;FIRST_NAME&lt;/span&gt;&lt;span style=&quot;box-sizing: border-box; color: rgb(57, 58, 52);&quot; class=&quot;token punctuation&quot;&gt;.&lt;/span&gt;&lt;span style=&quot;box-sizing: border-box; color: rgb(215, 58, 73);&quot; class=&quot;token function&quot;&gt;equals&lt;/span&gt;&lt;span style=&quot;box-sizing: border-box; color: rgb(57, 58, 52);&quot; class=&quot;token punctuation&quot;&gt;(&lt;/span&gt;&lt;span style=&quot;box-sizing: border-box; color: rgb(227, 17, 108);&quot; class=&quot;token string&quot;&gt;'Mallory'&lt;/span&gt;&lt;span style=&quot;box-sizing: border-box; color: rgb(57, 58, 52);&quot; class=&quot;token punctuation&quot;&gt;)&lt;/span&gt;&lt;span style=&quot;box-sizing: border-box;&quot; class=&quot;token plain&quot;&gt;&lt;/span&gt;&lt;br style=&quot;box-sizing: border-box;&quot;&gt;&lt;/span&gt;&lt;span style=&quot;box-sizing: border-box; color: rgb(57, 58, 52); font-family: SFMono-Regular, Menlo, Monaco, Consolas, &amp;quot;Liberation Mono&amp;quot;, &amp;quot;Courier New&amp;quot;, monospace; font-size: 15.2px; font-style: normal; font-variant-ligatures: normal; font-variant-caps: normal; font-weight: 400; letter-spacing: normal; orphans: 2; text-align: start; text-indent: 0px; text-transform: none; widows: 2; word-spacing: 0px; -webkit-text-stroke-width: 0px; background-color: rgb(246, 248, 250); text-decoration-thickness: initial; text-decoration-style: initial; text-decoration-color: initial;&quot; class=&quot;token-line&quot;&gt;&lt;span style=&quot;box-sizing: border-box;&quot; class=&quot;token plain&quot;&gt;    &lt;/span&gt;&lt;span style=&quot;box-sizing: border-box; color: rgb(57, 58, 52);&quot; class=&quot;token punctuation&quot;&gt;)&lt;/span&gt;&lt;span style=&quot;box-sizing: border-box;&quot; class=&quot;token plain&quot;&gt;&lt;/span&gt;&lt;br style=&quot;box-sizing: border-box;&quot;&gt;&lt;/span&gt;&lt;span style=&quot;box-sizing: border-box; color: rgb(57, 58, 52); font-family: SFMono-Regular, Menlo, Monaco, Consolas, &amp;quot;Liberation Mono&amp;quot;, &amp;quot;Courier New&amp;quot;, monospace; font-size: 15.2px; font-style: normal; font-variant-ligatures: normal; font-variant-caps: normal; font-weight: 400; letter-spacing: normal; orphans: 2; text-align: start; text-indent: 0px; text-transform: none; widows: 2; word-spacing: 0px; -webkit-text-stroke-width: 0px; background-color: rgb(246, 248, 250); text-decoration-thickness: initial; text-decoration-style: initial; text-decoration-color: initial;&quot; class=&quot;token-line&quot;&gt;&lt;span style=&quot;box-sizing: border-box;&quot; class=&quot;token plain&quot;&gt;  &lt;/span&gt;&lt;span style=&quot;box-sizing: border-box; color: rgb(57, 58, 52);&quot; class=&quot;token punctuation&quot;&gt;)&lt;/span&gt;&lt;span style=&quot;box-sizing: border-box;&quot; class=&quot;token plain&quot;&gt;&lt;/span&gt;&lt;br style=&quot;box-sizing: border-box;&quot;&gt;&lt;/span&gt;&lt;span style=&quot;box-sizing: border-box; color: rgb(57, 58, 52); font-family: SFMono-Regular, Menlo, Monaco, Consolas, &amp;quot;Liberation Mono&amp;quot;, &amp;quot;Courier New&amp;quot;, monospace; font-size: 15.2px; font-style: normal; font-variant-ligatures: normal; font-variant-caps: normal; font-weight: 400; letter-spacing: normal; orphans: 2; text-align: start; text-indent: 0px; text-transform: none; widows: 2; word-spacing: 0px; -webkit-text-stroke-width: 0px; background-color: rgb(246, 248, 250); text-decoration-thickness: initial; text-decoration-style: initial; text-decoration-color: initial;&quot; class=&quot;token-line&quot;&gt;&lt;span style=&quot;box-sizing: border-box;&quot; class=&quot;token plain&quot;&gt;  &lt;/span&gt;&lt;span style=&quot;box-sizing: border-box; color: rgb(57, 58, 52);&quot; class=&quot;token punctuation&quot;&gt;.&lt;/span&gt;&lt;span style=&quot;box-sizing: border-box; color: rgb(215, 58, 73);&quot; class=&quot;token function&quot;&gt;execute&lt;/span&gt;&lt;span style=&quot;box-sizing: border-box; color: rgb(57, 58, 52);&quot; class=&quot;token punctuation&quot;&gt;(&lt;/span&gt;&lt;span style=&quot;box-sizing: border-box;&quot; class=&quot;token plain&quot;&gt;destination&lt;/span&gt;&lt;span style=&quot;box-sizing: border-box; color: rgb(57, 58, 52);&quot; class=&quot;token punctuation&quot;&gt;)&lt;/span&gt;&lt;span style=&quot;box-sizing: border-box; color: rgb(57, 58, 52);&quot; class=&quot;token punctuation&quot;&gt;;&lt;/span&gt;&lt;/span&gt;" style="text;whiteSpace=wrap;html=1;" vertex="1" parent="1">
                    <mxGeometry x="-455" y="42" width="454" height="262" as="geometry"/>
                </mxCell>
                <mxCell id="37" value="" style="edgeStyle=none;curved=1;rounded=0;orthogonalLoop=1;jettySize=auto;html=1;endArrow=open;startSize=14;endSize=14;sourcePerimeterSpacing=8;targetPerimeterSpacing=8;" edge="1" parent="1" source="35" target="36">
                    <mxGeometry relative="1" as="geometry"/>
                </mxCell>
                <mxCell id="35" value="I want to create a new sales order" style="rounded=0;whiteSpace=wrap;html=1;" vertex="1" parent="1">
                    <mxGeometry x="380" y="398" width="334" height="41" as="geometry"/>
                </mxCell>
                <mxCell id="39" value="" style="edgeStyle=none;curved=1;rounded=0;orthogonalLoop=1;jettySize=auto;html=1;endArrow=open;startSize=14;endSize=14;sourcePerimeterSpacing=8;targetPerimeterSpacing=8;" edge="1" parent="1" source="36" target="38">
                    <mxGeometry relative="1" as="geometry"/>
                </mxCell>
                <mxCell id="36" value="Controller" style="rounded=0;whiteSpace=wrap;html=1;" vertex="1" parent="1">
                    <mxGeometry x="848" y="398" width="334" height="41" as="geometry"/>
                </mxCell>
                <mxCell id="44" value="" style="edgeStyle=none;curved=1;rounded=0;orthogonalLoop=1;jettySize=auto;html=1;endArrow=open;startSize=14;endSize=14;sourcePerimeterSpacing=8;targetPerimeterSpacing=8;" edge="1" parent="1" source="38" target="43">
                    <mxGeometry relative="1" as="geometry"/>
                </mxCell>
                <mxCell id="48" value="" style="edgeStyle=none;curved=1;rounded=0;orthogonalLoop=1;jettySize=auto;html=1;endArrow=open;startSize=14;endSize=14;sourcePerimeterSpacing=8;targetPerimeterSpacing=8;" edge="1" parent="1" source="38" target="47">
                    <mxGeometry relative="1" as="geometry"/>
                </mxCell>
                <mxCell id="38" value="embeddings" style="rounded=0;whiteSpace=wrap;html=1;" vertex="1" parent="1">
                    <mxGeometry x="848" y="482" width="334" height="41" as="geometry"/>
                </mxCell>
                <mxCell id="40" value="" style="edgeStyle=none;orthogonalLoop=1;jettySize=auto;html=1;rounded=0;endArrow=open;startSize=14;endSize=14;sourcePerimeterSpacing=8;targetPerimeterSpacing=8;curved=1;" edge="1" parent="1">
                    <mxGeometry width="140" relative="1" as="geometry">
                        <mxPoint x="480" y="448" as="sourcePoint"/>
                        <mxPoint x="620" y="448" as="targetPoint"/>
                        <Array as="points"/>
                    </mxGeometry>
                </mxCell>
                <mxCell id="43" value="Docs" style="ellipse;whiteSpace=wrap;html=1;rounded=0;" vertex="1" parent="1">
                    <mxGeometry x="1265" y="411" width="80" height="80" as="geometry"/>
                </mxCell>
                <mxCell id="53" value="" style="edgeStyle=none;curved=1;rounded=0;orthogonalLoop=1;jettySize=auto;html=1;endArrow=open;startSize=14;endSize=14;sourcePerimeterSpacing=8;targetPerimeterSpacing=8;" edge="1" parent="1" source="47" target="52">
                    <mxGeometry relative="1" as="geometry"/>
                </mxCell>
                <mxCell id="47" value="Completion API - structured output" style="rounded=0;whiteSpace=wrap;html=1;" vertex="1" parent="1">
                    <mxGeometry x="848" y="572" width="334" height="41" as="geometry"/>
                </mxCell>
                <mxCell id="49" value="Prompting" style="text;html=1;align=center;verticalAlign=middle;resizable=0;points=[];autosize=1;strokeColor=none;fillColor=none;" vertex="1" parent="1">
                    <mxGeometry x="1021" y="535" width="73" height="26" as="geometry"/>
                </mxCell>
                <mxCell id="50" value="" style="edgeStyle=none;curved=1;rounded=0;orthogonalLoop=1;jettySize=auto;html=1;endArrow=open;startSize=14;endSize=14;sourcePerimeterSpacing=8;targetPerimeterSpacing=8;" edge="1" parent="1">
                    <mxGeometry relative="1" as="geometry">
                        <mxPoint x="1175.0025435110363" y="529.69" as="sourcePoint"/>
                        <mxPoint x="1258" y="544" as="targetPoint"/>
                    </mxGeometry>
                </mxCell>
                <mxCell id="51" value="Cloud SDK Schema? or Fiori schema?" style="ellipse;whiteSpace=wrap;html=1;rounded=0;" vertex="1" parent="1">
                    <mxGeometry x="1271" y="500" width="85" height="85" as="geometry"/>
                </mxCell>
                <mxCell id="52" value="Fill data&amp;nbsp;" style="rounded=0;whiteSpace=wrap;html=1;" vertex="1" parent="1">
                    <mxGeometry x="846" y="667" width="334" height="41" as="geometry"/>
                </mxCell>
            </root>
        </mxGraphModel>
    </diagram>
</mxfile>